{"accessors" : [{"bufferView" : 0, "byteOffset" : 0, "componentType" : 5123, "count" : 9552, "type" : "SCALAR", "max" : [9551], "min" : [0]}, {"bufferView" : 1, "byteOffset" : 0, "componentType" : 5126, "count" : 9552, "type" : "VEC3", "max" : [-5.1967620849609375, -20.425079345703125, 7.406868934631348], "min" : [-104.20760345458984, -204.68020629882812, -37.867271423339844], "name" : "POSITION"}, {"bufferView" : 1, "byteOffset" : 12, "componentType" : 5126, "count" : 9552, "type" : "VEC3", "max" : [1.0000044107437134, 1.0000044107437134, 1.0000044107437134], "min" : [-1.0000044107437134, -0.9983969926834106, -1.0000039339065552], "name" : "NORMAL"}, {"bufferView" : 0, "byteOffset" : 19104, "componentType" : 5123, "count" : 144, "type" : "SCALAR", "max" : [143], "min" : [0]}, {"bufferView" : 2, "byteOffset" : 0, "componentType" : 5126, "count" : 144, "type" : "VEC3", "max" : [-89.36839294433594, 40.0301399230957, -1.6008440256118774], "min" : [-121.37139892578125, 30.3894100189209, -30.11441993713379], "name" : "POSITION"}, {"bufferView" : 2, "byteOffset" : 12, "componentType" : 5126, "count" : 144, "type" : "VEC3", "max" : [0.938288688659668, 1.0000044107437134, 0.938288688659668], "min" : [-0.9382914304733276, -1.0000044107437134, -0.9382886290550232], "name" : "NORMAL"}, {"bufferView" : 0, "byteOffset" : 19392, "componentType" : 5123, "count" : 1380, "type" : "SCALAR", "max" : [1379], "min" : [0]}, {"bufferView" : 3, "byteOffset" : 0, "componentType" : 5126, "count" : 1380, "type" : "VEC3", "max" : [-98.61775970458984, 5.9910078048706055, -5.161549091339111], "min" : [-113.28240203857422, -11.010760307312012, -19.34457015991211], "name" : "POSITION"}, {"bufferView" : 3, "byteOffset" : 12, "componentType" : 5126, "count" : 1380, "type" : "VEC3", "max" : [0.999223530292511, 1.0000044107437134, 0.9992226958274841], "min" : [-0.9382897019386292, -1.0000044107437134, -0.9382885098457336], "name" : "NORMAL"}, {"bufferView" : 0, "byteOffset" : 22152, "componentType" : 5123, "count" : 456, "type" : "SCALAR", "max" : [455], "min" : [0]}, {"bufferView" : 4, "byteOffset" : 0, "componentType" : 5126, "count" : 456, "type" : "VEC3", "max" : [-110.28150177001953, 39.69211959838867, -1.1359529495239258], "min" : [-126.1946029663086, 26.13174057006836, -17.411449432373047], "name" : "POSITION"}, {"bufferView" : 4, "byteOffset" : 12, "componentType" : 5126, "count" : 456, "type" : "VEC3", "max" : [0.9383068084716797, 1.0000044107437134, 0.9383071064949036], "min" : [-0.9383082985877991, -1.0000044107437134, -0.9952476024627686], "name" : "NORMAL"}, {"bufferView" : 0, "byteOffset" : 23064, "componentType" : 5123, "count" : 3465, "type" : "SCALAR", "max" : [3464], "min" : [0]}, {"bufferView" : 5, "byteOffset" : 0, "componentType" : 5126, "count" : 3465, "type" : "VEC3", "max" : [-88.05166625976562, 20.98724937438965, 27.56159019470215], "min" : [-120.24469757080078, -11.572669982910156, -7.500405788421631], "name" : "POSITION"}, {"bufferView" : 5, "byteOffset" : 12, "componentType" : 5126, "count" : 3465, "type" : "VEC3", "max" : [0.9464908838272095, 1.0000044107437134, 0.9971892833709717], "min" : [-0.9441607594490051, -1.0000044107437134, -0.9382989406585693], "name" : "NORMAL"}, {"bufferView" : 0, "byteOffset" : 29996, "componentType" : 5123, "count" : 1074, "type" : "SCALAR", "max" : [1073], "min" : [0]}, {"bufferView" : 6, "byteOffset" : 0, "componentType" : 5126, "count" : 1074, "type" : "VEC3", "max" : [-87.11116027832031, 23.192920684814453, 11.038680076599121], "min" : [-96.66708374023438, -17.148439407348633, -3.5811269283294678], "name" : "POSITION"}, {"bufferView" : 6, "byteOffset" : 12, "componentType" : 5126, "count" : 1074, "type" : "VEC3", "max" : [0.9999949932098389, 1.0000044107437134, 0.9999949932098389], "min" : [-0.9999403953552246, -1.0000044107437134, -0.9988592267036438], "name" : "NORMAL"}, {"bufferView" : 0, "byteOffset" : 32144, "componentType" : 5123, "count" : 2712, "type" : "SCALAR", "max" : [2711], "min" : [0]}, {"bufferView" : 7, "byteOffset" : 0, "componentType" : 5126, "count" : 2712, "type" : "VEC3", "max" : [-99.2014389038086, 24.254480361938477, -5.175995826721191], "min" : [-111.70040130615234, 10.65447998046875, -18.71023941040039], "name" : "POSITION"}, {"bufferView" : 7, "byteOffset" : 12, "componentType" : 5126, "count" : 2712, "type" : "VEC3", "max" : [0.999223530292511, 1.0000044107437134, 0.9914091229438782], "min" : [-0.9383013844490051, -1.0000044107437134, -0.9382886290550232], "name" : "NORMAL"}, {"bufferView" : 0, "byteOffset" : 37568, "componentType" : 5123, "count" : 372, "type" : "SCALAR", "max" : [371], "min" : [0]}, {"bufferView" : 8, "byteOffset" : 0, "componentType" : 5126, "count" : 372, "type" : "VEC3", "max" : [-78.37052917480469, 38.50613021850586, 20.400070190429688], "min" : [-118.75990295410156, -17.148439407348633, -11.309120178222656], "name" : "POSITION"}, {"bufferView" : 8, "byteOffset" : 12, "componentType" : 5126, "count" : 372, "type" : "VEC3", "max" : [0.9999960064888, 1.0000044107437134, 0.9385946989059448], "min" : [-0.9384334087371826, -1.0000044107437134, -0.9383068084716797], "name" : "NORMAL"}, {"bufferView" : 0, "byteOffset" : 38312, "componentType" : 5123, "count" : 216, "type" : "SCALAR", "max" : [215], "min" : [0]}, {"bufferView" : 9, "byteOffset" : 0, "componentType" : 5126, "count" : 216, "type" : "VEC3", "max" : [-78.88863372802734, 79.65413665771484, 27.065519332885742], "min" : [-137.1925048828125, 20.73324966430664, -15.914179801940918], "name" : "POSITION"}, {"bufferView" : 9, "byteOffset" : 12, "componentType" : 5126, "count" : 216, "type" : "VEC3", "max" : [0.9383084177970886, 1.0000044107437134, 0.938288688659668], "min" : [-0.9382886290550232, -1.0000044107437134, -0.9382899403572083], "name" : "NORMAL"}, {"bufferView" : 0, "byteOffset" : 38744, "componentType" : 5123, "count" : 54741, "type" : "SCALAR", "max" : [54740], "min" : [0]}, {"bufferView" : 10, "byteOffset" : 0, "componentType" : 5126, "count" : 54741, "type" : "VEC3", "max" : [-4.039486885070801, 46.53092956542969, 42.53126907348633], "min" : [-109.48370361328125, -31.211910247802734, -44.649009704589844], "name" : "POSITION"}, {"bufferView" : 10, "byteOffset" : 12, "componentType" : 5126, "count" : 54741, "type" : "VEC3", "max" : [1.0000044107437134, 1.0000044107437134, 1.0000044107437134], "min" : [-1.0000044107437134, -1.0000044107437134, -1.0000044107437134], "name" : "NORMAL"}], "asset" : {"generator" : "Aspose.3D 23.2", "version" : "2.0"}, "buffers" : [{"uri" : "data:application/octet-stream;base64,", "byteLength" : 1926960}], "bufferViews" : [{"buffer" : 0, "byteOffset" : 0, "byteLength" : 148228, "target" : 34963}, {"buffer" : 0, "byteOffset" : 148232, "byteLength" : 229248, "byteStride" : 24, "target" : 34962}, {"buffer" : 0, "byteOffset" : 377484, "byteLength" : 3456, "byteStride" : 24, "target" : 34962}, {"buffer" : 0, "byteOffset" : 380944, "byteLength" : 33120, "byteStride" : 24, "target" : 34962}, {"buffer" : 0, "byteOffset" : 414068, "byteLength" : 10944, "byteStride" : 24, "target" : 34962}, {"buffer" : 0, "byteOffset" : 425016, "byteLength" : 83160, "byteStride" : 24, "target" : 34962}, {"buffer" : 0, "byteOffset" : 508180, "byteLength" : 25776, "byteStride" : 24, "target" : 34962}, {"buffer" : 0, "byteOffset" : 533960, "byteLength" : 65088, "byteStride" : 24, "target" : 34962}, {"buffer" : 0, "byteOffset" : 599052, "byteLength" : 8928, "byteStride" : 24, "target" : 34962}, {"buffer" : 0, "byteOffset" : 607984, "byteLength" : 5184, "byteStride" : 24, "target" : 34962}, {"buffer" : 0, "byteOffset" : 613172, "byteLength" : 1313784, "byteStride" : 24, "target" : 34962}], "materials" : [{"name" : "mymaterial", "pbrMetallicRoughness" : {"baseColorFactor" : [0.7, 0.7, 0.7, 1], "metallicFactor" : 0, "roughnessFactor" : 0}, "emissiveFactor" : [0, 0, 0], "alphaMode" : "OPAQUE", "doubleSided" : false}, {"name" : "mymaterial", "pbrMetallicRoughness" : {"baseColorFactor" : [0.7, 0.7, 0.7, 1], "metallicFactor" : 0, "roughnessFactor" : 0}, "emissiveFactor" : [0, 0, 0], "alphaMode" : "OPAQUE", "doubleSided" : false}, {"name" : "mymaterial", "pbrMetallicRoughness" : {"baseColorFactor" : [0.7, 0.7, 0.7, 1], "metallicFactor" : 0, "roughnessFactor" : 0}, "emissiveFactor" : [0, 0, 0], "alphaMode" : "OPAQUE", "doubleSided" : false}, {"name" : "mymaterial", "pbrMetallicRoughness" : {"baseColorFactor" : [0.7, 0.7, 0.7, 1], "metallicFactor" : 0, "roughnessFactor" : 0}, "emissiveFactor" : [0, 0, 0], "alphaMode" : "OPAQUE", "doubleSided" : false}, {"name" : "mymaterial", "pbrMetallicRoughness" : {"baseColorFactor" : [0.7, 0.7, 0.7, 1], "metallicFactor" : 0, "roughnessFactor" : 0}, "emissiveFactor" : [0, 0, 0], "alphaMode" : "OPAQUE", "doubleSided" : false}, {"name" : "mymaterial", "pbrMetallicRoughness" : {"baseColorFactor" : [0.7, 0.7, 0.7, 1], "metallicFactor" : 0, "roughnessFactor" : 0}, "emissiveFactor" : [0, 0, 0], "alphaMode" : "OPAQUE", "doubleSided" : false}, {"name" : "mymaterial", "pbrMetallicRoughness" : {"baseColorFactor" : [0.7, 0.7, 0.7, 1], "metallicFactor" : 0, "roughnessFactor" : 0}, "emissiveFactor" : [0, 0, 0], "alphaMode" : "OPAQUE", "doubleSided" : false}, {"name" : "mymaterial", "pbrMetallicRoughness" : {"baseColorFactor" : [0.7, 0.7, 0.7, 1], "metallicFactor" : 0, "roughnessFactor" : 0}, "emissiveFactor" : [0, 0, 0], "alphaMode" : "OPAQUE", "doubleSided" : false}, {"name" : "mymaterial", "pbrMetallicRoughness" : {"baseColorFactor" : [0.7, 0.7, 0.7, 1], "metallicFactor" : 0, "roughnessFactor" : 0}, "emissiveFactor" : [0, 0, 0], "alphaMode" : "OPAQUE", "doubleSided" : false}, {"name" : "mymaterial", "pbrMetallicRoughness" : {"baseColorFactor" : [0.7, 0.7, 0.7, 1], "metallicFactor" : 0, "roughnessFactor" : 0}, "emissiveFactor" : [0, 0, 0], "alphaMode" : "OPAQUE", "doubleSided" : false}], "meshes" : [{"primitives" : [{"attributes" : {"POSITION" : 1, "NORMAL" : 2}, "indices" : 0, "material" : 0, "mode" : 4}], "name" : ""}, {"primitives" : [{"attributes" : {"POSITION" : 4, "NORMAL" : 5}, "indices" : 3, "material" : 1, "mode" : 4}], "name" : ""}, {"primitives" : [{"attributes" : {"POSITION" : 7, "NORMAL" : 8}, "indices" : 6, "material" : 2, "mode" : 4}], "name" : ""}, {"primitives" : [{"attributes" : {"POSITION" : 10, "NORMAL" : 11}, "indices" : 9, "material" : 3, "mode" : 4}], "name" : ""}, {"primitives" : [{"attributes" : {"POSITION" : 13, "NORMAL" : 14}, "indices" : 12, "material" : 4, "mode" : 4}], "name" : ""}, {"primitives" : [{"attributes" : {"POSITION" : 16, "NORMAL" : 17}, "indices" : 15, "material" : 5, "mode" : 4}], "name" : ""}, {"primitives" : [{"attributes" : {"POSITION" : 19, "NORMAL" : 20}, "indices" : 18, "material" : 6, "mode" : 4}], "name" : ""}, {"primitives" : [{"attributes" : {"POSITION" : 22, "NORMAL" : 23}, "indices" : 21, "material" : 7, "mode" : 4}], "name" : ""}, {"primitives" : [{"attributes" : {"POSITION" : 25, "NORMAL" : 26}, "indices" : 24, "material" : 8, "mode" : 4}], "name" : ""}, {"primitives" : [{"attributes" : {"POSITION" : 28, "NORMAL" : 29}, "indices" : 27, "material" : 9, "mode" : 4}], "name" : ""}], "nodes" : [{"mesh" : 0, "name" : "node1"}, {"mesh" : 1, "name" : "node2"}, {"mesh" : 2, "name" : "node3"}, {"mesh" : 3, "name" : "node4"}, {"mesh" : 4, "name" : "node5"}, {"mesh" : 5, "name" : "node6"}, {"mesh" : 6, "name" : "node7"}, {"mesh" : 7, "name" : "node8"}, {"mesh" : 8, "name" : "node9"}, {"mesh" : 9, "name" : "node10"}], "scene" : 0, "scenes" : [{"nodes" : [0, 1, 2, 3, 4, 5, 6, 7, 8, 9]}]}